<svg width="25" height="24" viewBox="0 0 25 24" fill="none" xmlns="http://www.w3.org/2000/svg">
<g filter="url(#filter0_d_2685_2116)">
<path d="M15 10C15 10.663 14.7366 11.2989 14.2678 11.7678C13.7989 12.2366 13.163 12.5 12.5 12.5C11.837 12.5 11.2011 12.2366 10.7322 11.7678C10.2634 11.2989 10 10.663 10 10C10 9.33696 10.2634 8.70107 10.7322 8.23223C11.2011 7.76339 11.837 7.5 12.5 7.5C13.163 7.5 13.7989 7.76339 14.2678 8.23223C14.7366 8.70107 15 9.33696 15 10Z" fill="black"/>
<path d="M4.5 10C4.5 10 7.5 4.5 12.5 4.5C17.5 4.5 20.5 10 20.5 10C20.5 10 17.5 15.5 12.5 15.5C7.5 15.5 4.5 10 4.5 10ZM12.5 13.5C13.4283 13.5 14.3185 13.1313 14.9749 12.4749C15.6313 11.8185 16 10.9283 16 10C16 9.07174 15.6313 8.1815 14.9749 7.52513C14.3185 6.86875 13.4283 6.5 12.5 6.5C11.5717 6.5 10.6815 6.86875 10.0251 7.52513C9.36875 8.1815 9 9.07174 9 10C9 10.9283 9.36875 11.8185 10.0251 12.4749C10.6815 13.1313 11.5717 13.5 12.5 13.5Z" fill="black"/>
</g>
<defs>
<filter id="filter0_d_2685_2116" x="-1.5" y="0" width="28" height="28" filterUnits="userSpaceOnUse" color-interpolation-filters="sRGB">
<feFlood flood-opacity="0" result="BackgroundImageFix"/>
<feColorMatrix in="SourceAlpha" type="matrix" values="0 0 0 0 0 0 0 0 0 0 0 0 0 0 0 0 0 0 127 0" result="hardAlpha"/>
<feOffset dy="4"/>
<feGaussianBlur stdDeviation="2"/>
<feComposite in2="hardAlpha" operator="out"/>
<feColorMatrix type="matrix" values="0 0 0 0 0 0 0 0 0 0 0 0 0 0 0 0 0 0 0.25 0"/>
<feBlend mode="normal" in2="BackgroundImageFix" result="effect1_dropShadow_2685_2116"/>
<feBlend mode="normal" in="SourceGraphic" in2="effect1_dropShadow_2685_2116" result="shape"/>
</filter>
</defs>
</svg>
